<svg xmlns="http://www.w3.org/2000/svg" viewBox="0 0 64 64">
  <!-- Navy blue background circle -->
  <circle cx="32" cy="32" r="30" fill="#0a2540"/>

  <!-- Gear teeth around the circle -->
  <g fill="#0a2540">
    <!-- Top -->
    <rect x="27" y="2" width="10" height="8" rx="2"/>
    <!-- Top-right -->
    <rect x="44" y="8" width="8" height="10" rx="2" transform="rotate(45 48 13)"/>
    <!-- Right -->
    <rect x="54" y="27" width="8" height="10" rx="2"/>
    <!-- Bottom-right -->
    <rect x="46" y="46" width="8" height="10" rx="2" transform="rotate(45 50 51)"/>
    <!-- Bottom -->
    <rect x="27" y="54" width="10" height="8" rx="2"/>
    <!-- Bottom-left -->
    <rect x="10" y="46" width="8" height="10" rx="2" transform="rotate(45 14 51)"/>
    <!-- Left -->
    <rect x="2" y="27" width="8" height="10" rx="2"/>
    <!-- Top-left -->
    <rect x="10" y="10" width="8" height="10" rx="2" transform="rotate(45 14 13)"/>
  </g>

  <!-- White inner circle -->
  <circle cx="32" cy="32" r="20" fill="#ffffff"/>

  <!-- MH text in navy blue -->
  <text x="32" y="42" font-family="Arial Black, Arial, sans-serif" font-size="18" font-weight="900" text-anchor="middle" fill="#0a2540">MH</text>
</svg>