<svg xmlns="http://www.w3.org/2000/svg" viewBox="0 0 64 64">
  <defs>
    <!-- Gear shape with 8 teeth -->
    <path id="gear-shape" d="
      M32,4
      L36,8 L42,8 L44,12 L48,10 L52,14 L50,18 L54,20 L54,26 L50,28 L50,34 L54,36 L54,42 L50,44 L52,48 L48,52 L44,50 L42,54 L36,54 L32,58
      L28,54 L22,54 L20,50 L16,52 L12,48 L14,44 L10,42 L10,36 L14,34 L14,28 L10,26 L10,20 L14,18 L12,14 L16,10 L20,12 L22,8 L28,8 L32,4
      Z
    "/>
  </defs>

  <!-- Outer gear - dark gray -->
  <use href="#gear-shape" fill="#6c757d"/>

  <!-- Inner white circle -->
  <circle cx="32" cy="32" r="20" fill="#ffffff"/>

  <!-- Inner decorative ring -->
  <circle cx="32" cy="32" r="18" fill="none" stroke="#e9ecef" stroke-width="1.5"/>

  <!-- MH text - dark gray -->
  <text x="32" y="41" font-family="Arial, Helvetica, sans-serif" font-size="16" font-weight="bold" text-anchor="middle" fill="#495057">MH</text>
</svg>