<svg xmlns="http://www.w3.org/2000/svg" viewBox="0 0 64 64">
  <defs>
    <!-- Sage gray-green color -->
    <style>
      .gear-color { fill: #9ca3a6; }
      .stroke-color { stroke: #9ca3a6; }
    </style>
  </defs>

  <!-- Outer gear with 12 teeth -->
  <g class="gear-color">
    <!-- Center circle -->
    <circle cx="32" cy="32" r="24"/>

    <!-- Gear teeth - 12 evenly spaced around the circle -->
    <!-- Each tooth is positioned at 30-degree intervals -->
    <rect x="28" y="0" width="8" height="10" rx="2"/>
    <rect x="41" y="3" width="10" height="8" rx="2" transform="rotate(30 46 8)"/>
    <rect x="50" y="14" width="10" height="8" rx="2" transform="rotate(60 55 18)"/>
    <rect x="54" y="28" width="10" height="8" rx="2" transform="rotate(90 59 32)"/>
    <rect x="50" y="42" width="10" height="8" rx="2" transform="rotate(120 55 46)"/>
    <rect x="41" y="53" width="10" height="8" rx="2" transform="rotate(150 46 57)"/>
    <rect x="28" y="54" width="8" height="10" rx="2" transform="rotate(180 32 59)"/>
    <rect x="14" y="53" width="8" height="10" rx="2" transform="rotate(210 18 58)"/>
    <rect x="4" y="42" width="10" height="8" rx="2" transform="rotate(240 9 46)"/>
    <rect x="0" y="28" width="10" height="8" rx="2" transform="rotate(270 5 32)"/>
    <rect x="4" y="14" width="10" height="8" rx="2" transform="rotate(300 9 18)"/>
    <rect x="14" y="3" width="8" height="10" rx="2" transform="rotate(330 18 8)"/>
  </g>

  <!-- Inner white circle -->
  <circle cx="32" cy="32" r="20" fill="#ffffff"/>

  <!-- Decorative inner ring -->
  <circle cx="32" cy="32" r="18" fill="none" stroke="#e9ecef" stroke-width="1.5"/>
</svg>